<svg width="128" height="128" viewBox="0 0 128 128" fill="none" xmlns="http://www.w3.org/2000/svg">
<rect width="128" height="128" rx="64" fill="#FF842D" fill-opacity="0.05"/>
<rect x="16" y="16" width="96" height="96" rx="48" fill="#FF842D" fill-opacity="0.05"/>
<path d="M92 64C92 79.5312 79.4219 92 64 92C48.4688 92 36 79.5312 36 64C36 58.2031 37.75 52.8438 40.8125 48.3594C41.0312 47.9219 41.5781 47.8125 42.0156 48.1406C42.3438 48.3594 42.4531 48.9062 42.2344 49.3438C39.3906 53.5 37.75 58.5312 37.75 64C37.75 78.5469 49.4531 90.25 64 90.25C78.4375 90.25 90.25 78.5469 90.25 64C90.25 49.8906 78.875 38.2969 64.875 37.8594V49.125C64.875 49.6719 64.4375 50 64 50C63.4531 50 63.125 49.6719 63.125 49.125V36.875C63.125 36.4375 63.4531 36 64 36C79.4219 36 92 48.5781 92 64ZM64.5469 63.4531C64.875 63.7812 64.875 64.3281 64.5469 64.6562C64.2188 64.9844 63.6719 64.9844 63.3438 64.6562L52.8438 54.1562C52.5156 53.8281 52.5156 53.2812 52.8438 52.9531C53.1719 52.625 53.7188 52.625 54.0469 52.9531L64.5469 63.4531Z" fill="#FF842D"/>
</svg>
