<svg width="128" height="128" viewBox="0 0 128 128" fill="none" xmlns="http://www.w3.org/2000/svg">
<rect width="128" height="128" rx="64" fill="#FF842D" fill-opacity="0.05"/>
<rect x="16" y="16" width="96" height="96" rx="48" fill="#FF842D" fill-opacity="0.05"/>
<path d="M86.9688 45.1875C88.9375 46.0625 90.25 47.9219 90.25 50C90.25 78 69.5781 92 63.8906 92C58.4219 92 37.75 78.2188 37.75 50C37.75 47.9219 38.9531 46.0625 40.9219 45.1875L61.9219 36.4375C62.4688 36.2188 63.3438 36.1094 64 36.1094C64.5469 36.1094 65.4219 36.2188 65.9688 36.4375L86.9688 45.1875ZM63.8906 90.25C65.5312 90.25 88.5 80.4062 88.5 50C88.5 48.5781 87.625 47.375 86.3125 46.8281L65.3125 38.0781C64.9844 37.9688 64.3281 37.75 64 37.75C63.5625 37.75 62.9062 37.9688 62.4688 38.0781L41.5781 46.7188C40.2656 47.2656 39.5 48.5781 39.5 50C39.5 76.9062 59.1875 90.25 63.8906 90.25ZM75.375 55.25C75.7031 55.25 76.25 55.5781 76.25 56.125C76.25 56.3438 76.1406 56.5625 75.9219 56.6719L61.0469 72.4219C60.9375 72.6406 60.7188 72.75 60.5 72.75C60.2812 72.6406 59.9531 72.6406 59.8438 72.4219L51.9688 63.6719C51.75 63.4531 51.75 63.3438 51.75 63.125C51.75 62.5781 52.0781 62.25 52.625 62.25C52.8438 62.25 53.0625 62.3594 53.2812 62.5781L60.5 70.6719L74.7188 55.4688C74.8281 55.25 75.0469 55.25 75.375 55.25Z" fill="#FF842D"/>
</svg>
