<svg width="128" height="128" viewBox="0 0 128 128" fill="none" xmlns="http://www.w3.org/2000/svg">
<rect width="128" height="128" rx="64" fill="#FF842D" fill-opacity="0.05"/>
<rect x="16" y="16" width="96" height="96" rx="48" fill="#FF842D" fill-opacity="0.05"/>
<path d="M73.2969 36.7656C73.8438 36.3281 74.5 36 75.1562 36C77.125 36 78.4375 38.0781 77.6719 39.8281L68.8125 60.5H82.2656C83.7969 60.5 85 61.7031 85 63.2344C85 64 84.5625 64.7656 84.0156 65.2031L54.5938 91.3438C54.0469 91.7812 53.3906 92 52.7344 92C50.7656 92 49.4531 90.0312 50.2188 88.2812L59.0781 67.5H45.5156C44.0938 67.5 43 66.4062 43 64.9844C43 64.2188 43.2188 63.5625 43.7656 63.125L73.2969 36.7656ZM75.1562 37.75C74.9375 37.75 74.7188 37.8594 74.5 38.0781L44.9688 64.4375C44.75 64.5469 44.75 64.7656 44.75 64.9844C44.75 65.4219 45.0781 65.75 45.5156 65.75H60.5C60.7188 65.75 61.0469 65.9688 61.1562 66.1875C61.375 66.4062 61.375 66.7344 61.2656 67.0625L51.8594 88.9375C51.5312 89.5938 52.0781 90.25 52.7344 90.25C52.9531 90.25 53.1719 90.25 53.3906 90.0312L82.9219 63.8906C83.0312 63.7812 83.25 63.4531 83.25 63.2344C83.25 62.6875 82.8125 62.25 82.2656 62.25H67.5C67.1719 62.25 66.8438 62.1406 66.7344 61.9219C66.5156 61.7031 66.5156 61.375 66.625 61.0469L76.0312 39.1719C76.3594 38.5156 75.8125 37.75 75.1562 37.75Z" fill="#FF842D"/>
</svg>
