<svg width="113" height="99" viewBox="0 0 113 99" fill="none" xmlns="http://www.w3.org/2000/svg">
    <path d="M79.8535 16.3184V19.5181H81.3535V16.3184H79.8535Z" fill="#FF842D"/>
    <path fill-rule="evenodd" clip-rule="evenodd" d="M92.2771 11.6797C92.2771 9.23323 90.2939 7.25 87.8474 7.25C85.401 7.25 83.4177 9.23323 83.4177 11.6797V12.7988H76.2041C75.0995 12.7988 74.2041 13.6943 74.2041 14.7988V21.0379C74.2041 22.1425 75.0995 23.0379 76.2041 23.0379H84.683C85.7876 23.0379 86.683 22.1425 86.683 21.0379V14.7988C86.683 13.7737 85.9117 12.9287 84.9177 12.8125V11.6797C84.9177 10.0617 86.2294 8.75 87.8474 8.75C89.4654 8.75 90.7771 10.0617 90.7771 11.6797V13.3613H92.2771V11.6797ZM76.2041 14.2988H84.683C84.9592 14.2988 85.183 14.5227 85.183 14.7988V21.0379C85.183 21.3141 84.9592 21.5379 84.683 21.5379H76.2041C75.928 21.5379 75.7041 21.3141 75.7041 21.0379V14.7988C75.7041 14.5227 75.928 14.2988 76.2041 14.2988Z" fill="#FF842D"/>
    <path fill-rule="evenodd" clip-rule="evenodd" d="M82.2041 32C91.0407 32 98.2041 24.8366 98.2041 16C98.2041 7.16344 91.0407 0 82.2041 0C73.3675 0 66.2041 7.16344 66.2041 16C66.2041 24.8366 73.3675 32 82.2041 32ZM82.2041 30.5C90.2122 30.5 96.7041 24.0081 96.7041 16C96.7041 7.99187 90.2122 1.5 82.2041 1.5C74.196 1.5 67.7041 7.99187 67.7041 16C67.7041 24.0081 74.196 30.5 82.2041 30.5Z" fill="#FF842D"/>
    <path d="M43.4658 8.32293C50.26 6.48319 57.3897 6.25384 64.2881 7.65312C64.694 7.73546 65.0899 7.47313 65.1722 7.06718C65.2546 6.66124 64.9922 6.2654 64.5863 6.18306C57.4592 4.7374 50.0932 4.97435 43.0737 6.87507C36.0543 8.7758 29.5751 12.2879 24.1512 17.1321C18.7274 21.9763 14.5084 28.0191 11.8297 34.78C9.15105 41.5409 8.08658 48.8335 8.72093 56.078C8.75706 56.4906 9.12086 56.7958 9.53349 56.7597C9.94613 56.7235 10.2513 56.3597 10.2152 55.9471C9.60122 48.9351 10.6315 41.8765 13.2243 35.3325C15.817 28.7885 19.9006 22.9397 25.1504 18.2509C30.4003 13.5621 36.6716 10.1627 43.4658 8.32293Z" fill="#FF842D"/>
    <path fill-rule="evenodd" clip-rule="evenodd" d="M20.2041 70.9992C20.2041 74.313 17.5178 76.9992 14.2041 76.9992C10.8904 76.9992 8.20411 74.313 8.20411 70.9992C8.20411 67.6855 10.8904 64.9992 14.2041 64.9992C17.5178 64.9992 20.2041 67.6855 20.2041 70.9992ZM18.7041 70.9992C18.7041 73.4845 16.6894 75.4992 14.2041 75.4992C11.7188 75.4992 9.70411 73.4845 9.70411 70.9992C9.70411 68.514 11.7188 66.4992 14.2041 66.4992C16.6894 66.4992 18.7041 68.514 18.7041 70.9992Z" fill="#FF842D"/>
    <path d="M47.7769 32.884L46.8893 34.0933L45.0491 32.7426L44.4163 33.6049L43.207 32.7174L44.7274 30.6458L47.7769 32.884Z" fill="#FF842D"/>
    <path d="M49.2526 34.5897L51.4907 31.5403L49.4192 30.0199L48.5317 31.2291L49.3939 31.862L48.0433 33.7022L49.2526 34.5897Z" fill="#FF842D"/>
    <path d="M45.9378 39.1067L48.1759 36.0572L46.9667 35.1697L45.616 37.0099L44.7538 36.377L43.8662 37.5863L45.9378 39.1067Z" fill="#FF842D"/>
    <path d="M41.4249 31.1021L39.1868 34.1516L41.2583 35.672L42.1458 34.4627L41.2836 33.8299L42.6342 31.9897L41.4249 31.1021Z" fill="#FF842D"/>
    <path d="M44.7398 26.5871L42.5016 29.6366L43.7108 30.5241L45.0615 28.6839L45.9237 29.3168L46.8113 28.1075L44.7398 26.5871Z" fill="#FF842D"/>
    <path fill-rule="evenodd" clip-rule="evenodd" d="M96.4118 29.7566C96.2147 29.3922 95.7596 29.2567 95.3952 29.4538C95.0309 29.6509 94.8953 30.106 95.0924 30.4703C99.6897 38.9686 101.432 48.6866 100.116 58.1982C99.5915 57.6367 99.012 57.1788 98.3991 56.8093C97.637 54.263 95.7964 51.9163 93.7079 50.6325C91.3273 49.1693 88.14 49.0463 85.2447 49.4457C82.9874 49.7572 80.8117 50.3995 79.1615 51.077C78.4668 50.3235 77.3775 49.9992 76.343 50.3223L75.248 50.6644C74.4233 49.094 72.5686 48.2833 70.8104 48.833L66.9911 50.027L66.4838 48.3168C65.8902 46.315 63.7758 45.1837 61.781 45.8004L44.5423 51.13L57.5088 34.8097C58.5623 33.4838 58.3102 31.5493 56.9521 30.5376L44.5844 21.3247C43.2849 20.3567 41.4514 20.5956 40.4434 21.8644L8.64792 61.8828C8.36136 62.2435 7.9562 62.4909 7.50444 62.581L3.27659 63.8881C1.31404 64.4949 0.204942 66.5677 0.789028 68.5371L5.17479 83.3249C5.76848 85.3267 7.88285 86.458 9.87766 85.8413L68.382 67.7536C70.3446 67.1468 71.4537 65.074 70.8696 63.1046L70.3081 61.2113L74.2326 59.9843C76.0086 59.4291 77.0812 57.6728 76.8277 55.8835L77.9689 55.527C79.3108 55.1078 80.088 53.7539 79.8361 52.4219C81.3524 51.8097 83.3613 51.2198 85.4497 50.9317C88.2269 50.5485 90.9869 50.7208 92.9224 51.9104C94.3619 52.7952 95.6615 54.2813 96.4576 55.9431C96.0941 55.8293 95.727 55.7376 95.3597 55.6657C92.8307 55.1701 90.2718 55.5934 88.7369 56.06C87.0914 56.5145 85.9898 57.4823 85.4099 58.698C84.8379 59.8971 84.804 61.2705 85.1511 62.5128C85.8368 64.9665 88.1397 67.2115 91.2789 66.5776C94.0184 66.0244 95.9451 64.977 97.1663 63.5895C98.3677 62.2244 98.8274 60.5964 98.767 58.9669C99.1402 59.3243 99.4841 59.7394 99.7901 60.2197C99.704 60.6861 99.6104 61.1518 99.5093 61.6166C97.2092 72.1928 91.1944 81.5943 82.556 88.1154C73.9176 94.6366 63.2279 97.8454 52.4262 97.1597C41.6245 96.4741 31.4264 91.9393 23.6819 84.3783C23.3855 84.0889 22.9107 84.0946 22.6213 84.3909C22.332 84.6873 22.3376 85.1622 22.634 85.4515C30.6352 93.2633 41.1714 97.9483 52.3312 98.6567C63.491 99.3651 74.535 96.0499 83.4598 89.3126C92.2563 82.6721 98.4196 73.1407 100.87 62.4056C101.919 64.4848 103.406 66.3413 105.28 67.2196C106.369 67.7298 107.579 67.9033 108.863 67.5989C110.137 67.297 111.43 66.5385 112.727 65.2769L111.681 64.2015C110.521 65.3302 109.458 65.9162 108.517 66.1393C107.587 66.3599 106.723 66.2389 105.917 65.8614C104.266 65.088 102.829 63.2153 101.835 60.9316C101.692 60.5794 101.534 60.2482 101.364 59.9368C103.141 49.6258 101.409 38.9937 96.4118 29.7566ZM41.6178 22.7975L9.30112 63.4731L9.04343 63.7974L8.2498 64.7963C5.01671 68.8656 5.79044 74.8028 9.95847 77.9076C13.9469 80.8786 19.5739 80.1453 22.6677 76.2513L56.3344 33.8766C56.8611 33.2136 56.7351 32.2464 56.056 31.7406L43.6883 22.5277C43.0386 22.0436 42.1218 22.1631 41.6178 22.7975ZM78.1055 52.1482C77.7968 51.7706 77.2799 51.6012 76.7903 51.7541L75.7427 52.0813L76.4402 54.433L77.5216 54.0952C78.1581 53.8964 78.5121 53.2301 78.3388 52.6008L78.1055 52.1482ZM3.71965 65.3212L6.66848 64.4095C3.3893 69.1134 4.39876 75.6365 9.06239 79.1105C13.7006 82.5656 20.2443 81.7128 23.8422 77.1844L31.0368 68.1289L31.1669 68.5677C31.6445 70.178 33.3456 71.0879 34.9501 70.5912L56.5905 63.8921C58.5523 63.2848 59.6607 61.2125 59.0768 59.2435L58.175 56.2031C57.5812 54.2008 55.466 53.0694 53.4709 53.687L38.9478 58.1716L43.0096 53.0593L43.0419 53.164L62.224 47.2335C63.4209 46.8634 64.6895 47.5422 65.0458 48.7433L69.4315 63.5311C69.782 64.7128 69.1165 65.9565 67.939 66.3205L9.4346 84.4082C8.23771 84.7783 6.96909 84.0995 6.61288 82.8984L2.22711 68.1106C1.87666 66.9289 2.54212 65.6852 3.71965 65.3212ZM32.1975 66.7673L32.0942 66.7979L37.7154 59.7227L37.8279 60.0873L53.9144 55.12C55.1115 54.7494 56.3806 55.4282 56.7369 56.6296L57.6387 59.6701C57.989 60.8514 57.324 62.0948 56.1469 62.4592L34.5066 69.1583C33.7001 69.4079 32.8451 68.9506 32.605 68.1412L32.1975 66.7673ZM67.4176 51.4653L69.8815 59.773L73.785 58.5527C74.9587 58.1857 75.6204 56.9444 75.2708 55.7654L74.0865 51.7724C73.7295 50.5686 72.4564 49.89 71.258 50.2646L67.4176 51.4653ZM95.0712 57.1377C95.7714 57.2749 96.4605 57.4912 97.1104 57.812C97.1924 58.1857 97.2448 58.5604 97.264 58.9317C97.3329 60.2642 96.9756 61.5358 96.0403 62.5985C95.097 63.6702 93.505 64.5978 90.982 65.1073C88.8414 65.5395 87.139 64.0531 86.5957 62.1091C86.3284 61.1525 86.3742 60.1604 86.7637 59.3439C87.1441 58.5465 87.8825 57.85 89.1442 57.5037L89.1544 57.5009L89.1645 57.4978C90.5437 57.0772 92.8493 56.7023 95.0712 57.1377Z" fill="#FF842D"/>
</svg>
